<svg width="120" height="120" viewBox="0 0 120 120" fill="none" xmlns="http://www.w3.org/2000/svg">
<circle cx="60" cy="60" r="60" fill="white"/>
<path d="M79.6 90.4H73.8V80.6H73.6C72.9333 82.2667 71.9333 83.8 70.6 85.2C69.3333 86.6 67.8667 87.8 66.2 88.8C64.5333 89.7333 62.7333 90.4667 60.8 91C58.9333 91.5333 57.0667 91.8 55.2 91.8C51.2667 91.8 47.8333 91.1 44.9 89.7C42.0333 88.2333 39.6333 86.2667 37.7 83.8C35.7667 81.2667 34.3333 78.3667 33.4 75.1C32.4667 71.7667 32 68.2667 32 64.6C32 60.9333 32.4667 57.4667 33.4 54.2C34.3333 50.8667 35.7667 47.9667 37.7 45.5C39.6333 42.9667 42.0333 40.9667 44.9 39.5C47.8333 38.0333 51.2667 37.3 55.2 37.3C57.1333 37.3 59 37.5333 60.8 38C62.6667 38.4667 64.4 39.2 66 40.2C67.6 41.1333 69 42.3 70.2 43.7C71.4667 45.1 72.4333 46.7333 73.1 48.6H73.3V19H79.6V90.4ZM38.3 64.6C38.3 67.2667 38.6 69.9333 39.2 72.6C39.8667 75.2 40.8667 77.5333 42.2 79.6C43.6 81.6667 45.3667 83.3667 47.5 84.7C49.6333 85.9667 52.2 86.6 55.2 86.6C58.5333 86.6 61.3333 85.9667 63.6 84.7C65.9333 83.3667 67.8 81.6667 69.2 79.6C70.6667 77.5333 71.7 75.2 72.3 72.6C72.9667 69.9333 73.3 67.2667 73.3 64.6C73.3 61.9333 72.9667 59.3 72.3 56.7C71.7 54.0333 70.6667 51.6667 69.2 49.6C67.8 47.5333 65.9333 45.8667 63.6 44.6C61.3333 43.2667 58.5333 42.6 55.2 42.6C52.2 42.6 49.6333 43.2667 47.5 44.6C45.3667 45.8667 43.6 47.5333 42.2 49.6C40.8667 51.6667 39.8667 54.0333 39.2 56.7C38.6 59.3 38.3 61.9333 38.3 64.6Z" fill="#E6E6E6"/>
</svg>
